Coordinates
datacolumns 6
datarows 137
range 0 1.36
inDegrees=yes
Units are S.I. units (second, meters, Newtons, ...)
If the header above contains a line with 'inDegrees', this indicates whether rotational values are in degrees (yes) or radians (no).
endheader
time	foot_tx	hip_flexion_r	knee_angle_r	ankle_angle_r	lumbar
0	0.20262466	66.42884629	-74.83663409	3.40155378	-10.64923024
0.01	0.202508	66.46933126	-74.82537761	3.39659059	-10.75355221
0.02	0.20238045	66.51940983	-74.81202903	3.3907878	-10.86310559
0.03	0.20225134	66.58021527	-74.79624796	3.38358853	-10.97675868
0.04	0.20213398	66.67503418	-74.776597	3.37151241	-11.06709471
0.05	0.20202633	66.73889588	-74.75414745	3.36138813	-11.21175656
0.06	0.20194921	66.85331932	-74.72643287	3.34356209	-11.3138244
0.07	0.20189733	66.9746241	-74.69383362	3.32278268	-11.42543128
0.08	0.20187216	67.1067946	-74.65655609	3.29907361	-11.54181696
0.09	0.20187218	67.25070929	-74.61479571	3.27284908	-11.66225789
0.1	0.20188882	67.40694734	-74.56814653	3.2450855	-11.78454523
0.11	0.20191205	67.61541671	-74.52160006	3.21613415	-11.86230443
0.12	0.20195438	67.79244641	-74.47007552	3.18936683	-11.99530202
0.13	0.20198507	68.04074138	-74.42228628	3.16387038	-12.06071532
0.14	0.20201875	68.23980373	-74.37284688	3.14573756	-12.20437877
0.15	0.20204249	68.51242029	-74.3296634	3.13043351	-12.2781994
0.16	0.20206473	68.7312846	-74.2846019	3.12359842	-12.43862509
0.17	0.20207779	69.02681292	-74.24594714	3.11970672	-12.52801838
0.18	0.20209657	69.26716892	-74.20544816	3.12425987	-12.70804374
0.19	0.20211226	69.58426836	-74.17019547	3.13085849	-12.81968289
0.2	0.20213885	69.85051179	-74.13087467	3.14393307	-13.01956531
0.21	0.20216225	70.18575057	-74.0966598	3.1597734	-13.16168899
0.22	0.20218916	70.47672013	-74.06028923	3.18307475	-13.38507826
0.23	0.20221044	70.8196811	-74.02806611	3.21031454	-13.57224747
0.24	0.20222709	71.13663587	-73.99613325	3.24562176	-13.8197777
0.25	0.20223227	71.51321988	-73.9695423	3.28505636	-14.02494342
0.26	0.20222574	71.91682533	-73.94632698	3.32973794	-14.23085931
0.27	0.20220106	72.37592676	-73.92778558	3.37827141	-14.40569211
0.28	0.20216609	72.89613252	-73.91300209	3.42944094	-14.54086546
0.29	0.20210806	73.47784793	-73.90057975	3.48344235	-14.63879583
0.3	0.20202777	74.11831893	-73.89089707	3.54144538	-14.70024751
0.31	0.20193387	74.81502468	-73.87744521	3.59955128	-14.73026291
0.32	0.20182346	75.56824933	-73.86373125	3.66050151	-14.72482295
0.33	0.20167945	76.37358929	-73.85393146	3.72852497	-14.68897604
0.34	0.20153084	77.23559248	-73.83880494	3.7956889	-14.61955444
0.35	0.20136649	78.1560338	-73.82168077	3.86467987	-14.51360628
0.36	0.20119825	79.13536018	-73.79872538	3.93326056	-14.36896727
0.37	0.2009849	80.17171085	-73.77949552	4.01200805	-14.18158506
0.38	0.20078274	81.25933182	-73.7486009	4.0911001	-13.9533053
0.39	0.20056433	82.39654966	-73.71331746	4.17980651	-13.67697133
0.4	0.20032668	83.57435393	-73.6746076	4.28234808	-13.35559682
0.41	0.20009683	84.78644324	-73.62801076	4.39710082	-12.98812301
0.42	0.19986416	86.03182475	-73.57749546	4.52949958	-12.56459536
0.43	0.19964486	87.29690941	-73.52192856	4.68087359	-12.0916078
0.44	0.19945942	88.57011918	-73.45957218	4.85112121	-11.57283028
0.45	0.19931534	89.83076347	-73.39145642	5.04284648	-11.02567057
0.46	0.19923782	91.06007017	-73.31667203	5.25509414	-10.4671163
0.47	0.19923279	92.23657058	-73.23672582	5.48951415	-9.91896921
0.48	0.19930618	93.34263073	-73.14927417	5.74587888	-9.39741269
0.49	0.19944803	94.35979817	-73.0568585	6.02743191	-8.9196485
0.5	0.19964024	95.27281175	-72.95729619	6.33485661	-8.49771177
0.51	0.19986657	96.06815403	-72.85155752	6.66909435	-8.14203882
0.52	0.20011087	96.7292432	-72.73725532	7.02779515	-7.86837644
0.53	0.20036122	97.24583303	-72.61466664	7.4082591	-7.68520137
0.54	0.20060875	97.61492056	-72.48229731	7.80561612	-7.59196696
0.55	0.20084904	97.83700809	-72.33957813	8.21511633	-7.58401619
0.56	0.2010788	97.93012656	-72.18407814	8.6304525	-7.63279093
0.57	0.20129371	97.87021161	-72.01491257	9.04991926	-7.76567316
0.58	0.20149818	97.70422002	-71.82460258	9.46487081	-7.91390389
0.59	0.20169934	97.44018876	-71.60480714	9.86889831	-8.06166864
0.6	0.20189697	97.09709092	-71.34566282	10.25565615	-8.17872218
0.61	0.20209327	96.69708919	-71.03712229	10.61874474	-8.23073893
0.62	0.20229259	96.24447602	-70.67040956	10.95365211	-8.20868164
0.63	0.20250165	95.73319422	-70.23968731	11.25777905	-8.1189245
0.64	0.20272065	95.15184711	-69.7395187	11.52934898	-7.97695496
0.65	0.20294818	94.49007198	-69.16593993	11.76700347	-7.79967484
0.66	0.20318016	93.73812891	-68.51672938	11.97051136	-7.60451089
0.67	0.20341005	92.87769213	-67.79391212	12.14267632	-7.41851395
0.68	0.2036302	91.89504205	-66.9961958	12.28538195	-7.26294126
0.69	0.20383449	90.78135042	-66.12398255	12.4009721	-7.15037673
0.7	0.20402968	89.5411839	-65.17412071	12.4872166	-7.07808623
0.71	0.20421882	88.18455478	-64.14356843	12.54096275	-7.03650108
0.72	0.20440959	86.72937799	-63.02905321	12.55761106	-7.00573518
0.73	0.20461058	85.19102888	-61.82861743	12.53317903	-6.96823333
0.74	0.20482654	83.57897289	-60.54313878	12.46603516	-6.9139039
0.75	0.20506701	81.89594166	-59.17371404	12.35478978	-6.83896432
0.76	0.20532955	80.13843481	-57.72674109	12.202884	-6.74809266
0.77	0.20561139	78.30496248	-56.20564084	12.01227689	-6.64264084
0.78	0.20590611	76.39309905	-54.61356992	11.78540113	-6.52568019
0.79	0.20621159	74.41446848	-52.95198981	11.52268146	-6.38295195
0.8	0.20652206	72.36387427	-51.22464143	11.22730299	-6.22290077
0.81	0.20684196	70.24372163	-49.43602759	10.90155853	-6.04426615
0.82	0.20716823	68.03933219	-47.59511052	10.55196308	-5.86996233
0.83	0.20750632	65.74710741	-45.71288723	10.18477348	-5.70861824
0.84	0.20785873	63.35667096	-43.80166315	9.80790065	-5.5780995
0.85	0.20822547	60.87140147	-41.87085315	9.42684969	-5.47955817
0.86	0.20860944	58.30773561	-39.92700053	9.04398981	-5.39934109
0.87	0.20900613	55.68094927	-37.97590696	8.66121562	-5.32808118
0.88	0.20941123	53.01525163	-36.02395093	8.27942352	-5.2480322
0.89	0.20981844	50.33498392	-34.07828481	7.89970383	-5.14286981
0.9	0.21021885	47.65836556	-32.14916254	7.52524198	-5.00782916
0.91	0.21060774	45.01512435	-30.24861114	7.15901207	-4.82533164
0.92	0.21097973	42.4280461	-28.39070501	6.80536922	-4.58918558
0.93	0.21133193	39.92243712	-26.58958157	6.46834074	-4.29371187
0.94	0.21166346	37.51986619	-24.85816396	6.15109907	-3.9380571
0.95	0.21197409	35.2443328	-23.20833452	5.85592969	-3.51863258
0.96	0.21227183	33.11222704	-21.64798083	5.5829135	-3.03923229
0.97	0.21253223	31.13714622	-20.19227387	5.33934873	-2.50213154
0.98	0.21277818	29.31788342	-18.83834899	5.12030136	-1.92325713
0.99	0.21299953	27.65189945	-17.58890903	4.9276235	-1.31221639
1	0.21319279	26.1282262	-16.43986821	4.76025821	-0.68294645
1.01	0.21335604	24.7324133	-15.38363704	4.61585433	-0.0499751
1.02	0.21347856	23.4530915	-14.41190581	4.49247253	0.57997098
1.03	0.21355925	22.27495025	-13.51578398	4.38736387	1.19479688
1.04	0.2135952	21.18661881	-12.68739548	4.29835662	1.7892037
1.05	0.21358504	20.18072542	-11.91838997	4.22267784	2.36396153
1.06	0.21352572	19.25071325	-11.20238348	4.15841491	2.91842656
1.07	0.21342266	18.38614797	-10.53330801	4.10336852	3.44703791
1.08	0.21327107	17.5820864	-9.90506639	4.05558772	3.95211024
1.09	0.21306976	16.83484677	-9.3129667	4.01339833	4.43540982
1.1	0.21281658	16.13899597	-8.75264925	3.97571263	4.897596
1.11	0.21250691	15.48985964	-8.22207813	3.94298804	5.3399347
1.12	0.21213929	14.88174262	-7.72088348	3.9166077	5.76186949
1.13	0.21172226	14.31369846	-7.25011682	3.89791501	6.1680868
1.14	0.2112727	13.78258586	-6.81371647	3.88944351	6.55806708
1.15	0.21081895	13.28863275	-6.4180725	3.89398052	6.93286592
1.16	0.21039982	12.8338022	-6.07265321	3.91496069	7.29225489
1.17	0.21006237	12.42098566	-5.78705634	3.95506703	7.63478709
1.18	0.20985304	12.06791161	-5.56970892	4.01493793	7.9769138
1.19	0.2098001	11.7470656	-5.42710506	4.09850108	8.28153822
1.2	0.20991962	11.46440724	-5.35502493	4.20166207	8.55702353
1.21	0.21020431	11.22479106	-5.34777369	4.32105298	8.81238394
1.22	0.21062428	11.06274387	-5.40633851	4.45530422	9.08614816
1.23	0.21114174	10.90541356	-5.49332401	4.59243575	9.31647287
1.24	0.21170939	10.76322054	-5.60331507	4.7312303	9.51783142
1.25	0.21229394	10.62286482	-5.71411712	4.86354785	9.69042411
1.26	0.212859	10.46842845	-5.81494247	4.98714491	9.82151819
1.27	0.21338125	10.31835791	-5.89961694	5.09923855	9.93767535
1.28	0.21384453	10.14460184	-5.9598415	5.19841075	10.00985672
1.29	0.21424046	9.96506142	-5.9992058	5.28579969	10.05839322
1.3	0.21458717	9.78341712	-6.01714548	5.3593838	10.08606712
1.31	0.21488406	9.60378637	-6.0209865	5.42381322	10.09973516
1.32	0.21514675	9.43268629	-6.0158309	5.48092435	10.10679224
1.33	0.21538852	9.27519015	-6.00832751	5.53372593	10.11328844
1.34	0.21561802	9.13476419	-6.00313079	5.58444368	10.12427118
1.35	0.21583495	9.0126357	-6.00267803	5.63463085	10.14261008
1.36	0.21603727	8.91001945	-6.0086698	5.68534602	10.17092832
